<?xml version="1.0" encoding="UTF-8"?>
<svg xmlns="http://www.w3.org/2000/svg" version="1.1" width="500" height="500" viewBox="0 0 500 500"><g transform="scale(17.241)"><g transform="translate(0,0)"><g><g transform="translate(3.5,3.5)"><path fill-rule="evenodd" d="M-3.5 -3.5L3.5 -3.5L3.5 3.5L-3.5 3.5ZM-2.5 -2.5L-2.5 2.5L2.5 2.5L2.5 -2.5Z" fill="#00c300"/><path fill-rule="evenodd" d="M-1.5 -1.5L1.5 -1.5L1.5 1.5L-1.5 1.5Z" fill="#00c300"/></g></g><g><g transform="translate(25.5,3.5)"><g transform="rotate(90)"><path fill-rule="evenodd" d="M-3.5 -3.5L3.5 -3.5L3.5 3.5L-3.5 3.5ZM-2.5 -2.5L-2.5 2.5L2.5 2.5L2.5 -2.5Z" fill="#00c300"/><path fill-rule="evenodd" d="M-1.5 -1.5L1.5 -1.5L1.5 1.5L-1.5 1.5Z" fill="#00c300"/></g></g></g><g><g transform="translate(3.5,25.5)"><g transform="rotate(-90)"><path fill-rule="evenodd" d="M-3.5 -3.5L3.5 -3.5L3.5 3.5L-3.5 3.5ZM-2.5 -2.5L-2.5 2.5L2.5 2.5L2.5 -2.5Z" fill="#00c300"/><path fill-rule="evenodd" d="M-1.5 -1.5L1.5 -1.5L1.5 1.5L-1.5 1.5Z" fill="#00c300"/></g></g></g><path fill-rule="evenodd" d="M8 0L8 4L9 4L9 5L8 5L8 7L9 7L9 6L10 6L10 9L11 9L11 8L12 8L12 9L13 9L13 11L12 11L12 12L11 12L11 13L9 13L9 14L8 14L8 13L7 13L7 12L6 12L6 11L8 11L8 12L10 12L10 11L11 11L11 10L9 10L9 9L8 9L8 10L6 10L6 9L7 9L7 8L4 8L4 9L2 9L2 8L0 8L0 10L1 10L1 11L0 11L0 12L1 12L1 11L3 11L3 12L2 12L2 13L1 13L1 14L2 14L2 16L3 16L3 15L4 15L4 14L5 14L5 16L6 16L6 17L2 17L2 18L4 18L4 20L3 20L3 19L2 19L2 20L0 20L0 21L2 21L2 20L3 20L3 21L5 21L5 18L6 18L6 19L7 19L7 18L8 18L8 19L9 19L9 21L8 21L8 20L6 20L6 21L8 21L8 22L9 22L9 21L12 21L12 22L10 22L10 23L8 23L8 25L9 25L9 27L8 27L8 29L9 29L9 27L10 27L10 25L11 25L11 24L12 24L12 22L14 22L14 23L13 23L13 25L12 25L12 26L11 26L11 28L13 28L13 27L15 27L15 22L17 22L17 20L18 20L18 21L19 21L19 22L18 22L18 23L16 23L16 24L19 24L19 25L18 25L18 27L17 27L17 26L16 26L16 27L17 27L17 28L16 28L16 29L19 29L19 28L20 28L20 29L23 29L23 28L24 28L24 29L25 29L25 28L27 28L27 29L28 29L28 28L27 28L27 27L29 27L29 26L28 26L28 25L29 25L29 24L28 24L28 23L29 23L29 22L28 22L28 23L27 23L27 21L25 21L25 20L22 20L22 19L23 19L23 18L24 18L24 19L27 19L27 20L28 20L28 18L29 18L29 17L28 17L28 14L27 14L27 13L28 13L28 12L26 12L26 11L27 11L27 9L29 9L29 8L25 8L25 9L24 9L24 8L23 8L23 9L21 9L21 11L19 11L19 13L20 13L20 14L21 14L21 13L22 13L22 15L23 15L23 14L24 14L24 15L27 15L27 16L25 16L25 17L24 17L24 16L22 16L22 17L21 17L21 18L20 18L20 16L21 16L21 15L19 15L19 14L18 14L18 15L16 15L16 16L17 16L17 17L15 17L15 18L14 18L14 17L13 17L13 16L12 16L12 15L13 15L13 14L14 14L14 16L15 16L15 14L14 14L14 13L15 13L15 11L17 11L17 9L16 9L16 10L15 10L15 11L14 11L14 9L13 9L13 8L12 8L12 7L13 7L13 6L12 6L12 7L11 7L11 3L10 3L10 2L9 2L9 0ZM13 0L13 1L11 1L11 2L12 2L12 5L15 5L15 4L16 4L16 3L15 3L15 1L16 1L16 2L18 2L18 1L17 1L17 0L15 0L15 1L14 1L14 0ZM20 0L20 1L19 1L19 3L18 3L18 4L19 4L19 3L21 3L21 0ZM13 1L13 4L14 4L14 1ZM16 5L16 7L15 7L15 6L14 6L14 8L16 8L16 7L17 7L17 6L18 6L18 7L19 7L19 10L20 10L20 7L21 7L21 5L20 5L20 7L19 7L19 6L18 6L18 5ZM1 9L1 10L2 10L2 9ZM25 9L25 10L26 10L26 9ZM4 10L4 11L6 11L6 10ZM8 10L8 11L9 11L9 10ZM23 10L23 11L22 11L22 12L24 12L24 13L25 13L25 14L26 14L26 13L25 13L25 11L24 11L24 10ZM28 10L28 11L29 11L29 10ZM3 12L3 13L2 13L2 14L3 14L3 13L4 13L4 12ZM5 12L5 14L7 14L7 13L6 13L6 12ZM12 12L12 13L11 13L11 14L12 14L12 13L13 13L13 12ZM16 12L16 14L17 14L17 13L18 13L18 12ZM6 15L6 16L8 16L8 17L9 17L9 19L10 19L10 20L12 20L12 19L13 19L13 21L14 21L14 22L15 22L15 21L16 21L16 20L17 20L17 19L18 19L18 20L19 20L19 19L20 19L20 18L19 18L19 16L18 16L18 17L17 17L17 18L16 18L16 19L13 19L13 17L12 17L12 16L11 16L11 17L10 17L10 16L9 16L9 15ZM0 17L0 18L1 18L1 17ZM6 17L6 18L7 18L7 17ZM22 17L22 18L21 18L21 19L22 19L22 18L23 18L23 17ZM25 17L25 18L26 18L26 17ZM18 18L18 19L19 19L19 18ZM21 21L21 24L24 24L24 21ZM19 22L19 23L20 23L20 22ZM22 22L22 23L23 23L23 22ZM25 23L25 24L26 24L26 25L28 25L28 24L26 24L26 23ZM19 25L19 26L20 26L20 28L22 28L22 27L24 27L24 26L25 26L25 27L26 27L26 26L25 26L25 25L24 25L24 26L21 26L21 25ZM18 27L18 28L19 28L19 27ZM14 28L14 29L15 29L15 28Z" fill="#00c300"/></g></g></svg>
